<?xml version="1.0" encoding="utf-8"?>
<!-- Generator: Adobe Illustrator 23.0.3, SVG Export Plug-In . SVG Version: 6.00 Build 0)  -->
<svg version="1.1" id="Calque_1" xmlns="http://www.w3.org/2000/svg" xmlns:xlink="http://www.w3.org/1999/xlink" x="0px" y="0px"
	 viewBox="0 0 800 800" style="enable-background:new 0 0 800 800;" xml:space="preserve">
<style type="text/css">
	.st0{fill:#7CFCF0;}
	.st1{fill:#7CE8F0;}
	.st2{fill:#767EE0;}
	.st3{fill:#7DBEEF;}
	.st4{fill:#7DF8F0;}
	.st5{fill:#7BF0EE;}
	.st6{fill:#78C8E7;}
	.st7{fill:#7EC4EF;}
	.st8{fill:#6D65D0;}
	.st9{fill:#593CA7;}
	.st10{fill:#7C75EC;}
	.st11{fill:#7A8EE8;}
	.st12{fill:#7CCDEE;}
	.st13{fill:#656BC1;}
	.st14{fill:#6856C4;}
	.st15{fill:#540C9E;}
	.st16{fill:#550CA0;}
	.st17{fill:#44168E;}
	.st18{fill:#441389;}
	.st19{fill:#6A0FC7;}
	.st20{fill:#5C0DAD;}
	.st21{fill:#440A80;}
	.st22{fill:#450E8C;}
	.st23{fill:#4E0B93;}
	.st24{fill:#530C9C;}
	.st25{fill:#440B7F;}
	.st26{fill:#6469C0;}
	.st27{fill:#4D1090;}
	.st28{fill:#7DF0F0;}
</style>
<polygon class="st0" points="214.1,141.7 202.4,54.4 45.2,229.1 "/>
<polygon class="st1" points="383,19.4 214.1,141.7 202.4,54.4 "/>
<polygon class="st2" points="487.8,141.7 383,19.4 598.5,71.9 "/>
<polygon class="st3" points="214.1,141.7 487.8,141.7 383,19.4 "/>
<polygon class="st4" points="97.6,339.7 45.2,229.1 214.1,141.7 "/>
<polygon class="st5" points="21.9,479.5 97.6,339.7 45.2,229.1 "/>
<polygon class="st6" points="167.5,572.7 97.6,339.7 21.9,479.5 "/>
<polygon class="st7" points="487.8,141.7 307.3,357.2 214.1,141.7 "/>
<polygon class="st8" points="709.1,269.9 487.8,141.7 598.5,71.9 "/>
<polygon class="st9" points="738.2,217.4 709.1,269.9 598.5,71.9 "/>
<polygon class="st10" points="563.5,374.7 709.1,269.9 487.8,141.7 "/>
<polygon class="st11" points="307.3,357.2 563.5,374.7 487.8,141.7 "/>
<polygon class="st12" points="167.5,572.7 307.3,357.2 97.6,339.7 "/>
<polygon class="st13" points="447,601.8 307.3,357.2 167.5,572.7 "/>
<polygon class="st14" points="563.5,374.7 447,601.8 307.3,357.2 "/>
<polygon class="st15" points="779,427.1 709.1,269.9 738.2,217.4 "/>
<polygon class="st16" points="685.8,537.8 779,427.1 709.1,269.9 "/>
<polygon class="st17" points="563.5,374.7 685.8,537.8 709.1,269.9 "/>
<polygon class="st18" points="447,601.8 685.8,537.8 563.5,374.7 "/>
<polygon class="st19" points="703.3,630.9 685.8,537.8 779,427.1 "/>
<polygon class="st20" points="540.2,735.8 685.8,537.8 703.3,630.9 "/>
<polygon class="st21" points="447,601.8 540.2,735.8 685.8,537.8 "/>
<polygon class="st22" points="313.1,735.8 447,601.8 540.2,735.8 "/>
<polygon class="st23" points="359.7,782.4 540.2,735.8 313.1,735.8 "/>
<polygon class="st24" points="144.2,695 313.1,735.8 359.7,782.4 "/>
<polygon class="st25" points="167.5,572.7 313.1,735.8 447,601.8 "/>
<polygon class="st26" points="21.9,479.5 144.2,695 167.5,572.7 "/>
<polygon class="st27" points="313.1,735.8 144.2,695 167.5,572.7 "/>
<polygon class="st28" points="307.3,357.2 97.6,339.7 214.1,141.7 "/>
</svg>
