<svg id="Calque_1" xmlns="http://www.w3.org/2000/svg" xmlns:xlink="http://www.w3.org/1999/xlink" viewBox="0 0 800 800" style="enable-background:new 0 0 800 800"><style>.st0{fill:#7cfcf0}.st1{fill:#7ce8f0}.st2{fill:#767ee0}.st3{fill:#7dbeef}.st4{fill:#7df8f0}.st5{fill:#7bf0ee}.st6{fill:#78c8e7}.st7{fill:#7ec4ef}.st8{fill:#6d65d0}.st9{fill:#593ca7}.st10{fill:#7c75ec}.st11{fill:#7a8ee8}.st12{fill:#7ccdee}.st13{fill:#656bc1}.st14{fill:#6856c4}.st15{fill:#540c9e}.st16{fill:#550ca0}.st17{fill:#44168e}.st18{fill:#441389}.st19{fill:#6a0fc7}.st20{fill:#5c0dad}.st21{fill:#440a80}.st22{fill:#450e8c}.st23{fill:#4e0b93}.st24{fill:#530c9c}.st25{fill:#440b7f}.st26{fill:#6469c0}.st27{fill:#4d1090}.st28{fill:#7df0f0}</style><path class="st0" d="M214.1 141.7 202.4 54.4 45.2 229.1z"/><path class="st1" d="M383 19.4 214.1 141.7 202.4 54.4z"/><path class="st2" d="M487.8 141.7 383 19.4 598.5 71.9z"/><path class="st3" d="M214.1 141.7H487.8L383 19.4z"/><path class="st4" d="M97.6 339.7 45.2 229.1 214.1 141.7z"/><path class="st5" d="M21.9 479.5 97.6 339.7 45.2 229.1z"/><path class="st6" d="M167.5 572.7 97.6 339.7 21.9 479.5z"/><path class="st7" d="M487.8 141.7 307.3 357.2 214.1 141.7z"/><path class="st8" d="M709.1 269.9 487.8 141.7 598.5 71.9z"/><path class="st9" d="M738.2 217.4 709.1 269.9 598.5 71.9z"/><path class="st10" d="M563.5 374.7 709.1 269.9 487.8 141.7z"/><path class="st11" d="M307.3 357.2l256.2 17.5L487.8 141.7z"/><path class="st12" d="M167.5 572.7 307.3 357.2 97.6 339.7z"/><path class="st13" d="M447 601.8 307.3 357.2 167.5 572.7z"/><path class="st14" d="M563.5 374.7 447 601.8 307.3 357.2z"/><path class="st15" d="M779 427.1 709.1 269.9 738.2 217.4z"/><path class="st16" d="M685.8 537.8 779 427.1 709.1 269.9z"/><path class="st17" d="M563.5 374.7 685.8 537.8 709.1 269.9z"/><path class="st18" d="M447 601.8 685.8 537.8 563.5 374.7z"/><path class="st19" d="M703.3 630.9 685.8 537.8 779 427.1z"/><path class="st20" d="M540.2 735.8 685.8 537.8 703.3 630.9z"/><path class="st21" d="M447 601.8 540.2 735.8 685.8 537.8z"/><path class="st22" d="M313.1 735.8 447 601.8 540.2 735.8z"/><path class="st23" d="M359.7 782.4 540.2 735.8H313.1z"/><path class="st24" d="M144.2 695 313.1 735.8 359.7 782.4z"/><path class="st25" d="M167.5 572.7 313.1 735.8 447 601.8z"/><path class="st26" d="M21.9 479.5 144.2 695 167.5 572.7z"/><path class="st27" d="M313.1 735.8 144.2 695 167.5 572.7z"/><path class="st28" d="M307.3 357.2 97.6 339.7l116.5-198z"/></svg>