<svg id="Naker-logo" xmlns="http://www.w3.org/2000/svg" xmlns:xlink="http://www.w3.org/1999/xlink" viewBox="0 0 384.7 358.6" style="enable-background:new 0 0 384.7 358.6"><style>.st0{fill:url(#SVGID_1_)}.st1{fill:#63f}.st2{fill:url(#SVGID_2_)}</style><linearGradient id="SVGID_1_" gradientUnits="userSpaceOnUse" x1="86.5848" y1="243.1276" x2="383.3806" y2="179.9697" gradientTransform="matrix(1 0 0 -1 0 360)"><stop offset="0" style="stop-color:#63f"/><stop offset="1" style="stop-color:#97f6ff"/></linearGradient><path class="st0" d="M213.1 120.6 139 260.1l-38.8 1.3c-9.8-.8-15.1-9.6-10.1-19.5C95 232.5 203.6 16 203.6 16c9.9-22.5 34.7-21.2 44.3 3.5 31.3 81.3 133.9 306.9 133.9 306.9L246.6 119.3c0 0-4.2-7.4-6.1-9.6-4.7-6.9-12.8-8.7-18.9-3.2C219.6 107.7 213.4 119.9 213.1 120.6z"/><path class="st1" d="M113 260.8l157.9-4.7 20.4 33.1c4.2 8.9-.9 17.9-11.9 18.4-10.6.5-252.4 13.4-252.4 13.4C2.4 323.4-8.8 301.3 8 280.8 63 213.2 204.6 13.9 204.6 13.9L95.3 232.4c0 0-4.3 7.3-5.3 10-3.7 7.6-1.2 15.4 6.6 18C98.6 261.6 112.2 260.9 113 260.8z"/><linearGradient id="SVGID_2_" gradientUnits="userSpaceOnUse" x1="201.3283" y1="3.801" x2="226.151" y2="243.3191" gradientTransform="matrix(1 0 0 -1 0 360)"><stop offset="0" style="stop-color:#09f"/><stop offset="1" style="stop-color:#00f"/></linearGradient><path class="st2" d="M283.5 277.3l-82.9-133.2 18-34.1c5.1-8.5 16.1-9.4 22.1-.1 5.8 8.9 138 211.6 138 211.6 14.5 19.9.9 40.7-25.2 36.6-86-13.6-330.1-37-330.1-37l244.4-14.2c0 0 8.5.1 11.3-.5 8.4-.6 14-6.7 12.3-14.8C291.4 289.4 284 278 283.5 277.3z"/></svg>